<?xml version="1.0" encoding="us-ascii" standalone="no"?><svg xmlns="http://www.w3.org/2000/svg" xmlns:xlink="http://www.w3.org/1999/xlink" contentStyleType="text/css" height="372px" preserveAspectRatio="none" style="width:2126px;height:372px;background:#FFFFFF;" version="1.1" viewBox="0 0 2126 372" width="2126px" zoomAndPan="magnify"><defs/><g><!--class MainComponent--><g id="elem_MainComponent"><rect codeLine="8" fill="#F1F1F1" height="96" id="MainComponent" rx="5" ry="5" style="stroke:#181818;stroke-width:1.0;" width="274" x="931" y="246.1"/><ellipse cx="961" cy="278.1" fill="#ADD1B2" rx="22" ry="22" style="stroke:#181818;stroke-width:2.0;"/><path d="M965.9463,290.3861 Q964.7842,290.9838 963.5059,291.2826 Q962.2275,291.5814 960.8164,291.5814 Q955.8027,291.5814 953.1631,288.2777 Q950.5234,284.974 950.5234,278.7318 Q950.5234,272.473 953.1631,269.1693 Q955.8027,265.8656 960.8164,265.8656 Q962.2275,265.8656 963.5225,266.1645 Q964.8174,266.4633 965.9463,267.0609 L965.9463,272.5063 Q964.6846,271.3441 963.4976,270.8046 Q962.3105,270.265 961.0488,270.265 Q958.3594,270.265 956.9897,272.3983 Q955.6201,274.5316 955.6201,278.7318 Q955.6201,282.9154 956.9897,285.0487 Q958.3594,287.182 961.0488,287.182 Q962.3105,287.182 963.4976,286.6425 Q964.6846,286.1029 965.9463,284.9408 Z " fill="#000000"/><text fill="#000000" font-family="Arial" font-size="28" lengthAdjust="spacing" textLength="210" x="989" y="288.265">MainComponent</text><line style="stroke:#181818;stroke-width:1.0;" x1="933" x2="1203" y1="310.1" y2="310.1"/><line style="stroke:#181818;stroke-width:1.0;" x1="933" x2="1203" y1="326.1" y2="326.1"/></g><!--class IMainComponent--><g id="elem_IMainComponent"><rect fill="#F1F1F1" height="96" id="IMainComponent" rx="5" ry="5" style="stroke:#181818;stroke-width:1.0;" width="282" x="927" y="14"/><ellipse cx="957" cy="46" fill="#B4A7E5" rx="22" ry="22" style="stroke:#181818;stroke-width:2.0;"/><path d="M949.8555,38.5303 L949.8555,34.2139 L964.6143,34.2139 L964.6143,38.5303 L959.6836,38.5303 L959.6836,54.6836 L964.6143,54.6836 L964.6143,59 L949.8555,59 L949.8555,54.6836 L954.7861,54.6836 L954.7861,38.5303 Z " fill="#000000"/><text fill="#000000" font-family="Arial" font-size="28" font-style="italic" lengthAdjust="spacing" textLength="218" x="985" y="56.165">IMainComponent</text><line style="stroke:#181818;stroke-width:1.0;" x1="929" x2="1207" y1="78" y2="78"/><line style="stroke:#181818;stroke-width:1.0;" x1="929" x2="1207" y1="94" y2="94"/></g><!--class SubComponent--><g id="elem_SubComponent"><rect codeLine="9" fill="#F1F1F1" height="96" id="SubComponent" rx="5" ry="5" style="stroke:#181818;stroke-width:1.0;" width="262" x="1283" y="246.1"/><ellipse cx="1313" cy="278.1" fill="#ADD1B2" rx="22" ry="22" style="stroke:#181818;stroke-width:2.0;"/><path d="M1317.9463,290.3861 Q1316.7842,290.9838 1315.5059,291.2826 Q1314.2275,291.5814 1312.8164,291.5814 Q1307.8027,291.5814 1305.1631,288.2777 Q1302.5234,284.974 1302.5234,278.7318 Q1302.5234,272.473 1305.1631,269.1693 Q1307.8027,265.8656 1312.8164,265.8656 Q1314.2275,265.8656 1315.5225,266.1645 Q1316.8174,266.4633 1317.9463,267.0609 L1317.9463,272.5063 Q1316.6846,271.3441 1315.4976,270.8046 Q1314.3105,270.265 1313.0488,270.265 Q1310.3594,270.265 1308.9897,272.3983 Q1307.6201,274.5316 1307.6201,278.7318 Q1307.6201,282.9154 1308.9897,285.0487 Q1310.3594,287.182 1313.0488,287.182 Q1314.3105,287.182 1315.4976,286.6425 Q1316.6846,286.1029 1317.9463,284.9408 Z " fill="#000000"/><text fill="#000000" font-family="Arial" font-size="28" lengthAdjust="spacing" textLength="198" x="1341" y="288.265">SubComponent</text><line style="stroke:#181818;stroke-width:1.0;" x1="1285" x2="1543" y1="310.1" y2="310.1"/><line style="stroke:#181818;stroke-width:1.0;" x1="1285" x2="1543" y1="326.1" y2="326.1"/></g><!--class ISubComponent--><g id="elem_ISubComponent"><rect fill="#F1F1F1" height="96" id="ISubComponent" rx="5" ry="5" style="stroke:#181818;stroke-width:1.0;" width="270" x="1279" y="14"/><ellipse cx="1309" cy="46" fill="#B4A7E5" rx="22" ry="22" style="stroke:#181818;stroke-width:2.0;"/><path d="M1301.8555,38.5303 L1301.8555,34.2139 L1316.6143,34.2139 L1316.6143,38.5303 L1311.6836,38.5303 L1311.6836,54.6836 L1316.6143,54.6836 L1316.6143,59 L1301.8555,59 L1301.8555,54.6836 L1306.7861,54.6836 L1306.7861,38.5303 Z " fill="#000000"/><text fill="#000000" font-family="Arial" font-size="28" font-style="italic" lengthAdjust="spacing" textLength="206" x="1337" y="56.165">ISubComponent</text><line style="stroke:#181818;stroke-width:1.0;" x1="1281" x2="1547" y1="78" y2="78"/><line style="stroke:#181818;stroke-width:1.0;" x1="1281" x2="1547" y1="94" y2="94"/></g><!--class MainUIModel--><g id="elem_MainUIModel"><rect codeLine="10" fill="#F1F1F1" height="96" id="MainUIModel" rx="5" ry="5" style="stroke:#181818;stroke-width:1.0;" width="232" x="14" y="14"/><ellipse cx="44" cy="46" fill="#ADD1B2" rx="22" ry="22" style="stroke:#181818;stroke-width:2.0;"/><path d="M48.9463,58.2861 Q47.7842,58.8838 46.5059,59.1826 Q45.2275,59.4814 43.8164,59.4814 Q38.8027,59.4814 36.1631,56.1777 Q33.5234,52.874 33.5234,46.6318 Q33.5234,40.373 36.1631,37.0693 Q38.8027,33.7656 43.8164,33.7656 Q45.2275,33.7656 46.5225,34.0645 Q47.8174,34.3633 48.9463,34.9609 L48.9463,40.4063 Q47.6846,39.2441 46.4976,38.7046 Q45.3105,38.165 44.0488,38.165 Q41.3594,38.165 39.9897,40.2983 Q38.6201,42.4316 38.6201,46.6318 Q38.6201,50.8154 39.9897,52.9487 Q41.3594,55.082 44.0488,55.082 Q45.3105,55.082 46.4976,54.5425 Q47.6846,54.0029 48.9463,52.8408 Z " fill="#000000"/><text fill="#000000" font-family="Arial" font-size="28" lengthAdjust="spacing" textLength="168" x="72" y="56.165">MainUIModel</text><line style="stroke:#181818;stroke-width:1.0;" x1="16" x2="244" y1="78" y2="78"/><line style="stroke:#181818;stroke-width:1.0;" x1="16" x2="244" y1="94" y2="94"/></g><!--class SubUIModel--><g id="elem_SubUIModel"><rect codeLine="11" fill="#F1F1F1" height="96" id="SubUIModel" rx="5" ry="5" style="stroke:#181818;stroke-width:1.0;" width="220" x="1622" y="246.1"/><ellipse cx="1652" cy="278.1" fill="#ADD1B2" rx="22" ry="22" style="stroke:#181818;stroke-width:2.0;"/><path d="M1656.9463,290.3861 Q1655.7842,290.9838 1654.5059,291.2826 Q1653.2275,291.5814 1651.8164,291.5814 Q1646.8027,291.5814 1644.1631,288.2777 Q1641.5234,284.974 1641.5234,278.7318 Q1641.5234,272.473 1644.1631,269.1693 Q1646.8027,265.8656 1651.8164,265.8656 Q1653.2275,265.8656 1654.5225,266.1645 Q1655.8174,266.4633 1656.9463,267.0609 L1656.9463,272.5063 Q1655.6846,271.3441 1654.4976,270.8046 Q1653.3105,270.265 1652.0488,270.265 Q1649.3594,270.265 1647.9897,272.3983 Q1646.6201,274.5316 1646.6201,278.7318 Q1646.6201,282.9154 1647.9897,285.0487 Q1649.3594,287.182 1652.0488,287.182 Q1653.3105,287.182 1654.4976,286.6425 Q1655.6846,286.1029 1656.9463,284.9408 Z " fill="#000000"/><text fill="#000000" font-family="Arial" font-size="28" lengthAdjust="spacing" textLength="156" x="1680" y="288.265">SubUIModel</text><line style="stroke:#181818;stroke-width:1.0;" x1="1624" x2="1840" y1="310.1" y2="310.1"/><line style="stroke:#181818;stroke-width:1.0;" x1="1624" x2="1840" y1="326.1" y2="326.1"/></g><!--class ISubUIModel--><g id="elem_ISubUIModel"><rect fill="#F1F1F1" height="96" id="ISubUIModel" rx="5" ry="5" style="stroke:#181818;stroke-width:1.0;" width="228" x="1618" y="14"/><ellipse cx="1648" cy="46" fill="#B4A7E5" rx="22" ry="22" style="stroke:#181818;stroke-width:2.0;"/><path d="M1640.8555,38.5303 L1640.8555,34.2139 L1655.6143,34.2139 L1655.6143,38.5303 L1650.6836,38.5303 L1650.6836,54.6836 L1655.6143,54.6836 L1655.6143,59 L1640.8555,59 L1640.8555,54.6836 L1645.7861,54.6836 L1645.7861,38.5303 Z " fill="#000000"/><text fill="#000000" font-family="Arial" font-size="28" font-style="italic" lengthAdjust="spacing" textLength="164" x="1676" y="56.165">ISubUIModel</text><line style="stroke:#181818;stroke-width:1.0;" x1="1620" x2="1844" y1="78" y2="78"/><line style="stroke:#181818;stroke-width:1.0;" x1="1620" x2="1844" y1="94" y2="94"/></g><!--class Event--><g id="elem_Event"><rect codeLine="12" fill="#F1F1F1" height="96" id="Event" rx="5" ry="5" style="stroke:#181818;stroke-width:1.0;" width="136" x="316" y="14"/><ellipse cx="346" cy="46" fill="#ADD1B2" rx="22" ry="22" style="stroke:#181818;stroke-width:2.0;"/><path d="M350.9463,58.2861 Q349.7842,58.8838 348.5059,59.1826 Q347.2275,59.4814 345.8164,59.4814 Q340.8027,59.4814 338.1631,56.1777 Q335.5234,52.874 335.5234,46.6318 Q335.5234,40.373 338.1631,37.0693 Q340.8027,33.7656 345.8164,33.7656 Q347.2275,33.7656 348.5225,34.0645 Q349.8174,34.3633 350.9463,34.9609 L350.9463,40.4063 Q349.6846,39.2441 348.4976,38.7046 Q347.3105,38.165 346.0488,38.165 Q343.3594,38.165 341.9897,40.2983 Q340.6201,42.4316 340.6201,46.6318 Q340.6201,50.8154 341.9897,52.9487 Q343.3594,55.082 346.0488,55.082 Q347.3105,55.082 348.4976,54.5425 Q349.6846,54.0029 350.9463,52.8408 Z " fill="#000000"/><text fill="#000000" font-family="Arial" font-size="28" lengthAdjust="spacing" textLength="72" x="374" y="56.165">Event</text><line style="stroke:#181818;stroke-width:1.0;" x1="318" x2="450" y1="78" y2="78"/><line style="stroke:#181818;stroke-width:1.0;" x1="318" x2="450" y1="94" y2="94"/></g><!--class EventPart--><g id="elem_EventPart"><rect codeLine="13" fill="#F1F1F1" height="96" id="EventPart" rx="5" ry="5" style="stroke:#181818;stroke-width:1.0;" width="188" x="1920" y="246.1"/><ellipse cx="1950" cy="278.1" fill="#ADD1B2" rx="22" ry="22" style="stroke:#181818;stroke-width:2.0;"/><path d="M1954.9463,290.3861 Q1953.7842,290.9838 1952.5059,291.2826 Q1951.2275,291.5814 1949.8164,291.5814 Q1944.8027,291.5814 1942.1631,288.2777 Q1939.5234,284.974 1939.5234,278.7318 Q1939.5234,272.473 1942.1631,269.1693 Q1944.8027,265.8656 1949.8164,265.8656 Q1951.2275,265.8656 1952.5225,266.1645 Q1953.8174,266.4633 1954.9463,267.0609 L1954.9463,272.5063 Q1953.6846,271.3441 1952.4976,270.8046 Q1951.3105,270.265 1950.0488,270.265 Q1947.3594,270.265 1945.9897,272.3983 Q1944.6201,274.5316 1944.6201,278.7318 Q1944.6201,282.9154 1945.9897,285.0487 Q1947.3594,287.182 1950.0488,287.182 Q1951.3105,287.182 1952.4976,286.6425 Q1953.6846,286.1029 1954.9463,284.9408 Z " fill="#000000"/><text fill="#000000" font-family="Arial" font-size="28" lengthAdjust="spacing" textLength="124" x="1978" y="288.265">EventPart</text><line style="stroke:#181818;stroke-width:1.0;" x1="1922" x2="2106" y1="310.1" y2="310.1"/><line style="stroke:#181818;stroke-width:1.0;" x1="1922" x2="2106" y1="326.1" y2="326.1"/></g><!--class IEventPart--><g id="elem_IEventPart"><rect fill="#F1F1F1" height="96" id="IEventPart" rx="5" ry="5" style="stroke:#181818;stroke-width:1.0;" width="196" x="1916" y="14"/><ellipse cx="1946" cy="46" fill="#B4A7E5" rx="22" ry="22" style="stroke:#181818;stroke-width:2.0;"/><path d="M1938.8555,38.5303 L1938.8555,34.2139 L1953.6143,34.2139 L1953.6143,38.5303 L1948.6836,38.5303 L1948.6836,54.6836 L1953.6143,54.6836 L1953.6143,59 L1938.8555,59 L1938.8555,54.6836 L1943.7861,54.6836 L1943.7861,38.5303 Z " fill="#000000"/><text fill="#000000" font-family="Arial" font-size="28" font-style="italic" lengthAdjust="spacing" textLength="132" x="1974" y="56.165">IEventPart</text><line style="stroke:#181818;stroke-width:1.0;" x1="1918" x2="2110" y1="78" y2="78"/><line style="stroke:#181818;stroke-width:1.0;" x1="1918" x2="2110" y1="94" y2="94"/></g><!--class EventPartMasterData--><g id="elem_EventPartMasterData"><rect codeLine="14" fill="#F1F1F1" height="96" id="EventPartMasterData" rx="5" ry="5" style="stroke:#181818;stroke-width:1.0;" width="336" x="522" y="14"/><ellipse cx="552" cy="46" fill="#ADD1B2" rx="22" ry="22" style="stroke:#181818;stroke-width:2.0;"/><path d="M556.9463,58.2861 Q555.7842,58.8838 554.5059,59.1826 Q553.2275,59.4814 551.8164,59.4814 Q546.8027,59.4814 544.1631,56.1777 Q541.5234,52.874 541.5234,46.6318 Q541.5234,40.373 544.1631,37.0693 Q546.8027,33.7656 551.8164,33.7656 Q553.2275,33.7656 554.5225,34.0645 Q555.8174,34.3633 556.9463,34.9609 L556.9463,40.4063 Q555.6846,39.2441 554.4976,38.7046 Q553.3105,38.165 552.0488,38.165 Q549.3594,38.165 547.9897,40.2983 Q546.6201,42.4316 546.6201,46.6318 Q546.6201,50.8154 547.9897,52.9487 Q549.3594,55.082 552.0488,55.082 Q553.3105,55.082 554.4976,54.5425 Q555.6846,54.0029 556.9463,52.8408 Z " fill="#000000"/><text fill="#000000" font-family="Arial" font-size="28" lengthAdjust="spacing" textLength="272" x="580" y="56.165">EventPartMasterData</text><line style="stroke:#181818;stroke-width:1.0;" x1="524" x2="856" y1="78" y2="78"/><line style="stroke:#181818;stroke-width:1.0;" x1="524" x2="856" y1="94" y2="94"/></g><!--class BLModel--><g id="elem_BLModel"><rect codeLine="15" fill="#F1F1F1" height="96" id="BLModel" rx="5" ry="5" style="stroke:#181818;stroke-width:1.0;" width="176" x="42" y="246.1"/><ellipse cx="72" cy="278.1" fill="#ADD1B2" rx="22" ry="22" style="stroke:#181818;stroke-width:2.0;"/><path d="M76.9463,290.3861 Q75.7842,290.9838 74.5059,291.2826 Q73.2275,291.5814 71.8164,291.5814 Q66.8027,291.5814 64.1631,288.2777 Q61.5234,284.974 61.5234,278.7318 Q61.5234,272.473 64.1631,269.1693 Q66.8027,265.8656 71.8164,265.8656 Q73.2275,265.8656 74.5225,266.1645 Q75.8174,266.4633 76.9463,267.0609 L76.9463,272.5063 Q75.6846,271.3441 74.4976,270.8046 Q73.3105,270.265 72.0488,270.265 Q69.3594,270.265 67.9897,272.3983 Q66.6201,274.5316 66.6201,278.7318 Q66.6201,282.9154 67.9897,285.0487 Q69.3594,287.182 72.0488,287.182 Q73.3105,287.182 74.4976,286.6425 Q75.6846,286.1029 76.9463,284.9408 Z " fill="#000000"/><text fill="#000000" font-family="Arial" font-size="28" lengthAdjust="spacing" textLength="112" x="100" y="288.265">BLModel</text><line style="stroke:#181818;stroke-width:1.0;" x1="44" x2="216" y1="310.1" y2="310.1"/><line style="stroke:#181818;stroke-width:1.0;" x1="44" x2="216" y1="326.1" y2="326.1"/></g><!--class FabricUIModel--><g id="elem_FabricUIModel"><rect codeLine="16" fill="#F1F1F1" height="128.1973" id="FabricUIModel" rx="5" ry="5" style="stroke:#181818;stroke-width:1.0;" width="536" x="288" y="230"/><ellipse cx="454.5" cy="262" fill="#ADD1B2" rx="22" ry="22" style="stroke:#181818;stroke-width:2.0;"/><path d="M459.4463,274.2861 Q458.2842,274.8838 457.0059,275.1826 Q455.7275,275.4814 454.3164,275.4814 Q449.3027,275.4814 446.6631,272.1777 Q444.0234,268.874 444.0234,262.6318 Q444.0234,256.373 446.6631,253.0693 Q449.3027,249.7656 454.3164,249.7656 Q455.7275,249.7656 457.0225,250.0645 Q458.3174,250.3633 459.4463,250.9609 L459.4463,256.4063 Q458.1846,255.2441 456.9976,254.7046 Q455.8105,254.165 454.5488,254.165 Q451.8594,254.165 450.4897,256.2983 Q449.1201,258.4316 449.1201,262.6318 Q449.1201,266.8154 450.4897,268.9487 Q451.8594,271.082 454.5488,271.082 Q455.8105,271.082 456.9976,270.5425 Q458.1846,270.0029 459.4463,268.8408 Z " fill="#000000"/><text fill="#000000" font-family="Arial" font-size="28" lengthAdjust="spacing" textLength="186" x="495.5" y="272.165">FabricUIModel</text><line style="stroke:#181818;stroke-width:1.0;" x1="290" x2="822" y1="294" y2="294"/><line style="stroke:#181818;stroke-width:1.0;" x1="290" x2="822" y1="310" y2="310"/><ellipse cx="310" cy="337.0986" fill="#84BE84" rx="6" ry="6" style="stroke:#038048;stroke-width:2.0;"/><text fill="#000000" font-family="Arial" font-size="28" lengthAdjust="spacing" textLength="484" x="328" y="344.2637">getUiModel(type: Class): ISubUIModel</text></g><!--reverse link IMainComponent to MainComponent--><g id="link_IMainComponent_MainComponent"><path d="M1068,146.72 C1068,186.08 1068,206.1 1068,245.46 " fill="none" id="IMainComponent-backto-MainComponent" style="stroke:#181818;stroke-width:2.0;stroke-dasharray:7.0,7.0;"/><polygon fill="none" points="1068,110.72,1056,146.72,1080,146.72,1068,110.72" style="stroke:#181818;stroke-width:2.0;"/></g><!--reverse link ISubComponent to SubComponent--><g id="link_ISubComponent_SubComponent"><path d="M1414,146.72 C1414,186.08 1414,206.1 1414,245.46 " fill="none" id="ISubComponent-backto-SubComponent" style="stroke:#181818;stroke-width:2.0;stroke-dasharray:7.0,7.0;"/><polygon fill="none" points="1414,110.72,1402,146.72,1426,146.72,1414,110.72" style="stroke:#181818;stroke-width:2.0;"/></g><!--reverse link ISubUIModel to SubUIModel--><g id="link_ISubUIModel_SubUIModel"><path d="M1732,146.72 C1732,186.08 1732,206.1 1732,245.46 " fill="none" id="ISubUIModel-backto-SubUIModel" style="stroke:#181818;stroke-width:2.0;stroke-dasharray:7.0,7.0;"/><polygon fill="none" points="1732,110.72,1720,146.72,1744,146.72,1732,110.72" style="stroke:#181818;stroke-width:2.0;"/></g><!--reverse link IEventPart to EventPart--><g id="link_IEventPart_EventPart"><path d="M2014,146.72 C2014,186.08 2014,206.1 2014,245.46 " fill="none" id="IEventPart-backto-EventPart" style="stroke:#181818;stroke-width:2.0;stroke-dasharray:7.0,7.0;"/><polygon fill="none" points="2014,110.72,2002,146.72,2026,146.72,2014,110.72" style="stroke:#181818;stroke-width:2.0;"/></g><!--SRC=[bLJBRkCm3BphAmXVjgySscCG16YxMo3OU16WxGSm2Xi8jIL3Lje6Y_ttfHpRUjGzr0T388VaS4YfbLWHt8ZsLUa6BTRGe7p5FJsw8piiIHVvTlI2Xyez6Et-O4rGt5g5LI6SQS0Ps1hd3AEK3rD62_5ZmwdWMWXPOTj2YKhVcxenchG3LJSLrNngOPLuUlJZOJiDZXrHvkTLQNPKXUZUaCSEvXxuwosawSuRj6czqPgZIcmTsP_eKDntdhjrJE41jrR9eTnV0VnTxiazgyvoveuDpQ6BF9_7rCG_8JIzDonUB-7D8E66h5HSLKlwt1mxszYPyCWZ0vyyB27ckIZDRRwWf6nGYqw9PUoFPxC8Sav8beVrlNyZAD4tTeI1HSQyor1e6QG8bNeHdlZFmvaQ-JZErHhr_i1ZwkBaqBw_8dDedLLwVmLLZnaidFG9w8Fvx7XoQGxMF2AU-NnP8LB0gQ5op3T1zmhMeLoSS1bjPjA8PpWb3DjBlnMuvKvGEZXjsR3dYydYN_QwJ3QuJt9YDAl71B-96h9plt-fwGIieeGZTFt9w5cdRr1nNS35R0P5ZVfO94-EYDwK2TomTkabzvZuBUgqoAF3Ueh_]--></g></svg>