<?xml version="1.0" encoding="us-ascii" standalone="no"?><svg xmlns="http://www.w3.org/2000/svg" xmlns:xlink="http://www.w3.org/1999/xlink" contentStyleType="text/css" height="346px" preserveAspectRatio="none" style="width:2472px;height:346px;background:#FFFFFF;" version="1.1" viewBox="0 0 2472 346" width="2472px" zoomAndPan="magnify"><defs/><g><!--class PercistenceModel--><g id="elem_PercistenceModel"><rect codeLine="23" fill="#F1F1F1" height="48" id="PercistenceModel" rx="2.5" ry="2.5" style="stroke:#181818;stroke-width:0.5;" width="151" x="1137.5" y="167.46"/><ellipse cx="1152.5" cy="183.46" fill="#ADD1B2" rx="11" ry="11" style="stroke:#181818;stroke-width:1.0;"/><path d="M1154.9731,189.6031 Q1154.3921,189.9019 1153.7529,190.0513 Q1153.1138,190.2007 1152.4082,190.2007 Q1149.9014,190.2007 1148.5815,188.5489 Q1147.2617,186.897 1147.2617,183.7759 Q1147.2617,180.6465 1148.5815,178.9947 Q1149.9014,177.3428 1152.4082,177.3428 Q1153.1138,177.3428 1153.7612,177.4922 Q1154.4087,177.6416 1154.9731,177.9405 L1154.9731,180.6631 Q1154.3423,180.0821 1153.7488,179.8123 Q1153.1553,179.5425 1152.5244,179.5425 Q1151.1797,179.5425 1150.4949,180.6092 Q1149.8101,181.6758 1149.8101,183.7759 Q1149.8101,185.8677 1150.4949,186.9344 Q1151.1797,188.001 1152.5244,188.001 Q1153.1553,188.001 1153.7488,187.7312 Q1154.3423,187.4615 1154.9731,186.8804 Z " fill="#000000"/><text fill="#000000" font-family="sans-serif" font-size="14" lengthAdjust="spacing" textLength="119" x="1166.5" y="188.751">PercistenceModel</text><line style="stroke:#181818;stroke-width:0.5;" x1="1138.5" x2="1287.5" y1="199.46" y2="199.46"/><line style="stroke:#181818;stroke-width:0.5;" x1="1138.5" x2="1287.5" y1="207.46" y2="207.46"/></g><!--class IPersistenceModel--><g id="elem_IPersistenceModel"><rect codeLine="33" fill="#F1F1F1" height="80.9766" id="IPersistenceModel" rx="2.5" ry="2.5" style="stroke:#181818;stroke-width:0.5;" width="651" x="887.5" y="10"/><ellipse cx="1118.75" cy="26" fill="#B4A7E5" rx="11" ry="11" style="stroke:#181818;stroke-width:1.0;"/><path d="M1115.1777,22.2651 L1115.1777,20.1069 L1122.5571,20.1069 L1122.5571,22.2651 L1120.0918,22.2651 L1120.0918,30.3418 L1122.5571,30.3418 L1122.5571,32.5 L1115.1777,32.5 L1115.1777,30.3418 L1117.6431,30.3418 L1117.6431,22.2651 Z " fill="#000000"/><text fill="#000000" font-family="sans-serif" font-size="14" font-style="italic" lengthAdjust="spacing" textLength="123" x="1139.25" y="31.291">IPersistenceModel</text><rect fill="#FFFFFF" height="15.7988" style="stroke:#181818;stroke-width:1.0;stroke-dasharray:2.0,2.0;" width="55" x="1486.5" y="7"/><text fill="#000000" font-family="Arial" font-size="12" font-style="italic" lengthAdjust="spacing" textLength="53" x="1487.5" y="19.2559">EventPart</text><line style="stroke:#181818;stroke-width:0.5;" x1="888.5" x2="1537.5" y1="42" y2="42"/><line style="stroke:#181818;stroke-width:0.5;" x1="888.5" x2="1537.5" y1="50" y2="50"/><ellipse cx="898.5" cy="63.7441" fill="#84BE84" rx="3" ry="3" style="stroke:#038048;stroke-width:1.0;"/><text fill="#000000" font-family="sans-serif" font-size="14" lengthAdjust="spacing" textLength="328" x="907.5" y="67.5352">getMasterData(type: Type): EventPartMasterData</text><ellipse cx="898.5" cy="80.2324" fill="#84BE84" rx="3" ry="3" style="stroke:#038048;stroke-width:1.0;"/><text fill="#000000" font-family="sans-serif" font-size="14" lengthAdjust="spacing" textLength="625" x="907.5" y="84.0234">getUILanguageData(componentName: string, language: string): T extends IUILanguageData</text></g><!--class FabricPercistenceModel--><g id="elem_FabricPercistenceModel"><rect codeLine="24" fill="#F1F1F1" height="64.4883" id="FabricPercistenceModel" rx="2.5" ry="2.5" style="stroke:#181818;stroke-width:0.5;" width="250" x="29" y="18.24"/><ellipse cx="69.65" cy="34.24" fill="#ADD1B2" rx="11" ry="11" style="stroke:#181818;stroke-width:1.0;"/><path d="M72.1231,40.3831 Q71.5421,40.6819 70.9029,40.8313 Q70.2638,40.9807 69.5582,40.9807 Q67.0514,40.9807 65.7315,39.3289 Q64.4117,37.677 64.4117,34.5559 Q64.4117,31.4265 65.7315,29.7747 Q67.0514,28.1228 69.5582,28.1228 Q70.2638,28.1228 70.9112,28.2722 Q71.5587,28.4216 72.1231,28.7205 L72.1231,31.4431 Q71.4923,30.8621 70.8988,30.5923 Q70.3053,30.3225 69.6744,30.3225 Q68.3297,30.3225 67.6449,31.3892 Q66.9601,32.4558 66.9601,34.5559 Q66.9601,36.6477 67.6449,37.7144 Q68.3297,38.781 69.6744,38.781 Q70.3053,38.781 70.8988,38.5112 Q71.4923,38.2415 72.1231,37.6604 Z " fill="#000000"/><text fill="#000000" font-family="sans-serif" font-size="14" lengthAdjust="spacing" textLength="161" x="89.35" y="39.531">FabricPercistenceModel</text><line style="stroke:#181818;stroke-width:0.5;" x1="30" x2="278" y1="50.24" y2="50.24"/><line style="stroke:#181818;stroke-width:0.5;" x1="30" x2="278" y1="58.24" y2="58.24"/><ellipse cx="40" cy="71.9841" fill="#84BE84" rx="3" ry="3" style="stroke:#038048;stroke-width:1.0;"/><text fill="#000000" font-family="sans-serif" font-size="14" lengthAdjust="spacing" textLength="224" x="49" y="75.7752">getPersistenceModel(type: Class)</text></g><!--class IMainComponent--><g id="elem_IMainComponent"><rect codeLine="28" fill="#F1F1F1" height="48" id="IMainComponent" rx="2.5" ry="2.5" style="stroke:#181818;stroke-width:0.5;" width="185" x="313.5" y="26.49"/><ellipse cx="328.5" cy="42.49" fill="#B4A7E5" rx="11" ry="11" style="stroke:#181818;stroke-width:1.0;"/><path d="M324.9277,38.7551 L324.9277,36.5969 L332.3071,36.5969 L332.3071,38.7551 L329.8418,38.7551 L329.8418,46.8318 L332.3071,46.8318 L332.3071,48.99 L324.9277,48.99 L324.9277,46.8318 L327.3931,46.8318 L327.3931,38.7551 Z " fill="#000000"/><text fill="#000000" font-family="sans-serif" font-size="14" font-style="italic" lengthAdjust="spacing" textLength="118" x="342.5" y="47.781">IMainComponent</text><rect fill="#FFFFFF" height="15.7988" style="stroke:#181818;stroke-width:1.0;stroke-dasharray:2.0,2.0;" width="33" x="468.5" y="23.49"/><text fill="#000000" font-family="Arial" font-size="12" font-style="italic" lengthAdjust="spacing" textLength="31" x="469.5" y="35.7459">Event</text><line style="stroke:#181818;stroke-width:0.5;" x1="314.5" x2="497.5" y1="58.49" y2="58.49"/><line style="stroke:#181818;stroke-width:0.5;" x1="314.5" x2="497.5" y1="66.49" y2="66.49"/></g><!--class ISubComponent--><g id="elem_ISubComponent"><rect codeLine="29" fill="#F1F1F1" height="48" id="ISubComponent" rx="2.5" ry="2.5" style="stroke:#181818;stroke-width:0.5;" width="319" x="533.5" y="26.49"/><ellipse cx="548.5" cy="42.49" fill="#B4A7E5" rx="11" ry="11" style="stroke:#181818;stroke-width:1.0;"/><path d="M544.9277,38.7551 L544.9277,36.5969 L552.3071,36.5969 L552.3071,38.7551 L549.8418,38.7551 L549.8418,46.8318 L552.3071,46.8318 L552.3071,48.99 L544.9277,48.99 L544.9277,46.8318 L547.3931,46.8318 L547.3931,38.7551 Z " fill="#000000"/><text fill="#000000" font-family="sans-serif" font-size="14" font-style="italic" lengthAdjust="spacing" textLength="111" x="562.5" y="47.781">ISubComponent</text><rect fill="#FFFFFF" height="15.7988" style="stroke:#181818;stroke-width:1.0;stroke-dasharray:2.0,2.0;" width="174" x="681.5" y="23.49"/><text fill="#000000" font-family="Arial" font-size="12" font-style="italic" lengthAdjust="spacing" textLength="172" x="682.5" y="35.7459">EventPart EventPartMasterData</text><line style="stroke:#181818;stroke-width:0.5;" x1="534.5" x2="851.5" y1="58.49" y2="58.49"/><line style="stroke:#181818;stroke-width:0.5;" x1="534.5" x2="851.5" y1="66.49" y2="66.49"/></g><!--class ISubUIModel--><g id="elem_ISubUIModel"><rect codeLine="30" fill="#F1F1F1" height="48" id="ISubUIModel" rx="2.5" ry="2.5" style="stroke:#181818;stroke-width:0.5;" width="294" x="7" y="167.46"/><ellipse cx="22" cy="183.46" fill="#B4A7E5" rx="11" ry="11" style="stroke:#181818;stroke-width:1.0;"/><path d="M18.4277,179.7251 L18.4277,177.5669 L25.8071,177.5669 L25.8071,179.7251 L23.3418,179.7251 L23.3418,187.8018 L25.8071,187.8018 L25.8071,189.96 L18.4277,189.96 L18.4277,187.8018 L20.8931,187.8018 L20.8931,179.7251 Z " fill="#000000"/><text fill="#000000" font-family="sans-serif" font-size="14" font-style="italic" lengthAdjust="spacing" textLength="86" x="36" y="188.751">ISubUIModel</text><rect fill="#FFFFFF" height="15.7988" style="stroke:#181818;stroke-width:1.0;stroke-dasharray:2.0,2.0;" width="174" x="130" y="164.46"/><text fill="#000000" font-family="Arial" font-size="12" font-style="italic" lengthAdjust="spacing" textLength="172" x="131" y="176.7159">EventPart EventPartMasterData</text><line style="stroke:#181818;stroke-width:0.5;" x1="8" x2="300" y1="199.46" y2="199.46"/><line style="stroke:#181818;stroke-width:0.5;" x1="8" x2="300" y1="207.46" y2="207.46"/></g><!--class IFabricUIModel--><g id="elem_IFabricUIModel"><rect codeLine="31" fill="#F1F1F1" height="48" id="IFabricUIModel" rx="2.5" ry="2.5" style="stroke:#181818;stroke-width:0.5;" width="134" x="336" y="167.46"/><ellipse cx="351" cy="183.46" fill="#B4A7E5" rx="11" ry="11" style="stroke:#181818;stroke-width:1.0;"/><path d="M347.4277,179.7251 L347.4277,177.5669 L354.8071,177.5669 L354.8071,179.7251 L352.3418,179.7251 L352.3418,187.8018 L354.8071,187.8018 L354.8071,189.96 L347.4277,189.96 L347.4277,187.8018 L349.8931,187.8018 L349.8931,179.7251 Z " fill="#000000"/><text fill="#000000" font-family="sans-serif" font-size="14" font-style="italic" lengthAdjust="spacing" textLength="102" x="365" y="188.751">IFabricUIModel</text><line style="stroke:#181818;stroke-width:0.5;" x1="337" x2="469" y1="199.46" y2="199.46"/><line style="stroke:#181818;stroke-width:0.5;" x1="337" x2="469" y1="207.46" y2="207.46"/></g><!--class IEventPart--><g id="elem_IEventPart"><rect codeLine="32" fill="#F1F1F1" height="48" id="IEventPart" rx="2.5" ry="2.5" style="stroke:#181818;stroke-width:0.5;" width="100" x="505" y="167.46"/><ellipse cx="520" cy="183.46" fill="#B4A7E5" rx="11" ry="11" style="stroke:#181818;stroke-width:1.0;"/><path d="M516.4277,179.7251 L516.4277,177.5669 L523.8071,177.5669 L523.8071,179.7251 L521.3418,179.7251 L521.3418,187.8018 L523.8071,187.8018 L523.8071,189.96 L516.4277,189.96 L516.4277,187.8018 L518.8931,187.8018 L518.8931,179.7251 Z " fill="#000000"/><text fill="#000000" font-family="sans-serif" font-size="14" font-style="italic" lengthAdjust="spacing" textLength="68" x="534" y="188.751">IEventPart</text><line style="stroke:#181818;stroke-width:0.5;" x1="506" x2="604" y1="199.46" y2="199.46"/><line style="stroke:#181818;stroke-width:0.5;" x1="506" x2="604" y1="207.46" y2="207.46"/></g><!--class IUILanguageData--><g id="elem_IUILanguageData"><rect codeLine="37" fill="#F1F1F1" height="48" id="IUILanguageData" rx="2.5" ry="2.5" style="stroke:#181818;stroke-width:0.5;" width="148" x="80" y="291.95"/><ellipse cx="95" cy="307.95" fill="#B4A7E5" rx="11" ry="11" style="stroke:#181818;stroke-width:1.0;"/><path d="M91.4277,304.2151 L91.4277,302.0569 L98.8071,302.0569 L98.8071,304.2151 L96.3418,304.2151 L96.3418,312.2918 L98.8071,312.2918 L98.8071,314.45 L91.4277,314.45 L91.4277,312.2918 L93.8931,312.2918 L93.8931,304.2151 Z " fill="#000000"/><text fill="#000000" font-family="sans-serif" font-size="14" font-style="italic" lengthAdjust="spacing" textLength="116" x="109" y="313.241">IUILanguageData</text><line style="stroke:#181818;stroke-width:0.5;" x1="81" x2="227" y1="323.95" y2="323.95"/><line style="stroke:#181818;stroke-width:0.5;" x1="81" x2="227" y1="331.95" y2="331.95"/></g><!--class IUIModel--><g id="elem_IUIModel"><rect codeLine="41" fill="#F1F1F1" height="80.9766" id="IUIModel" rx="2.5" ry="2.5" style="stroke:#181818;stroke-width:0.5;" width="418" x="1574" y="10"/><ellipse cx="1589" cy="26" fill="#B4A7E5" rx="11" ry="11" style="stroke:#181818;stroke-width:1.0;"/><path d="M1585.4277,22.2651 L1585.4277,20.1069 L1592.8071,20.1069 L1592.8071,22.2651 L1590.3418,22.2651 L1590.3418,30.3418 L1592.8071,30.3418 L1592.8071,32.5 L1585.4277,32.5 L1585.4277,30.3418 L1587.8931,30.3418 L1587.8931,22.2651 Z " fill="#000000"/><text fill="#000000" font-family="sans-serif" font-size="14" font-style="italic" lengthAdjust="spacing" textLength="60" x="1603" y="31.291">IUIModel</text><rect fill="#FFFFFF" height="15.7988" style="stroke:#181818;stroke-width:1.0;stroke-dasharray:2.0,2.0;" width="324" x="1671" y="7"/><text fill="#000000" font-family="Arial" font-size="12" font-style="italic" lengthAdjust="spacing" textLength="322" x="1672" y="19.2559">M extends EventPartMasterData, L extends ILanguageData</text><line style="stroke:#181818;stroke-width:0.5;" x1="1575" x2="1991" y1="42" y2="42"/><line style="stroke:#181818;stroke-width:0.5;" x1="1575" x2="1991" y1="50" y2="50"/><ellipse cx="1585" cy="63.7441" fill="#84BE84" rx="3" ry="3" style="stroke:#038048;stroke-width:1.0;"/><text fill="#000000" font-family="sans-serif" font-size="14" lengthAdjust="spacing" textLength="147" x="1594" y="67.5352">getLanguageData(): T</text><ellipse cx="1585" cy="80.2324" fill="#84BE84" rx="3" ry="3" style="stroke:#038048;stroke-width:1.0;"/><text fill="#000000" font-family="sans-serif" font-size="14" lengthAdjust="spacing" textLength="129" x="1594" y="84.0234">getMasterData(): M</text></g><!--class UIModel--><g id="elem_UIModel"><rect codeLine="46" fill="#F1F1F1" height="80.9766" id="UIModel" rx="2.5" ry="2.5" style="stroke:#181818;stroke-width:0.5;" width="367" x="1599.5" y="150.97"/><ellipse cx="1614.5" cy="166.97" fill="#A9DCDF" rx="11" ry="11" style="stroke:#181818;stroke-width:1.0;"/><path d="M1614.3633,162.3181 L1613.2095,167.3899 L1615.5254,167.3899 Z M1612.8691,160.0769 L1615.8657,160.0769 L1619.2109,172.47 L1616.7622,172.47 L1615.9985,169.407 L1612.7197,169.407 L1611.9727,172.47 L1609.5239,172.47 Z " fill="#000000"/><text fill="#000000" font-family="sans-serif" font-size="14" font-style="italic" lengthAdjust="spacing" textLength="56" x="1628.5" y="172.261">UIModel</text><rect fill="#FFFFFF" height="15.7988" style="stroke:#181818;stroke-width:1.0;stroke-dasharray:2.0,2.0;" width="277" x="1692.5" y="147.97"/><text fill="#000000" font-family="Arial" font-size="12" font-style="italic" lengthAdjust="spacing" textLength="275" x="1693.5" y="160.2259">EventPartMasterData, T extends IUILanguageData</text><line style="stroke:#181818;stroke-width:0.5;" x1="1600.5" x2="1965.5" y1="182.97" y2="182.97"/><rect fill="none" height="6" style="stroke:#C82930;stroke-width:1.0;" width="6" x="1607.5" y="193.7141"/><text fill="#000000" font-family="sans-serif" font-size="14" lengthAdjust="spacing" textLength="263" x="1619.5" y="200.5052">masterDataKeeper: IMasterDataKeeper</text><rect fill="none" height="6" style="stroke:#C82930;stroke-width:1.0;" width="6" x="1607.5" y="210.2024"/><text fill="#000000" font-family="sans-serif" font-size="14" lengthAdjust="spacing" textLength="301" x="1619.5" y="216.9934">languageDataKeeper: ILanguageDataKeeper</text><line style="stroke:#181818;stroke-width:0.5;" x1="1600.5" x2="1965.5" y1="223.9466" y2="223.9466"/></g><!--class MainComponent--><g id="elem_MainComponent"><rect fill="#F1F1F1" height="48" id="MainComponent" rx="2.5" ry="2.5" style="stroke:#181818;stroke-width:0.5;" width="146" x="2027" y="26.49"/><ellipse cx="2042" cy="42.49" fill="#ADD1B2" rx="11" ry="11" style="stroke:#181818;stroke-width:1.0;"/><path d="M2044.4731,48.6331 Q2043.8921,48.9319 2043.2529,49.0813 Q2042.6138,49.2307 2041.9082,49.2307 Q2039.4014,49.2307 2038.0815,47.5789 Q2036.7617,45.927 2036.7617,42.8059 Q2036.7617,39.6765 2038.0815,38.0247 Q2039.4014,36.3728 2041.9082,36.3728 Q2042.6138,36.3728 2043.2612,36.5222 Q2043.9087,36.6716 2044.4731,36.9705 L2044.4731,39.6931 Q2043.8423,39.1121 2043.2488,38.8423 Q2042.6553,38.5725 2042.0244,38.5725 Q2040.6797,38.5725 2039.9949,39.6392 Q2039.3101,40.7058 2039.3101,42.8059 Q2039.3101,44.8977 2039.9949,45.9644 Q2040.6797,47.031 2042.0244,47.031 Q2042.6553,47.031 2043.2488,46.7612 Q2043.8423,46.4915 2044.4731,45.9104 Z " fill="#000000"/><text fill="#000000" font-family="sans-serif" font-size="14" lengthAdjust="spacing" textLength="114" x="2056" y="47.781">MainComponent</text><line style="stroke:#181818;stroke-width:0.5;" x1="2028" x2="2172" y1="58.49" y2="58.49"/><line style="stroke:#181818;stroke-width:0.5;" x1="2028" x2="2172" y1="66.49" y2="66.49"/></g><!--class SubComponent--><g id="elem_SubComponent"><rect fill="#F1F1F1" height="48" id="SubComponent" rx="2.5" ry="2.5" style="stroke:#181818;stroke-width:0.5;" width="139" x="2030.5" y="167.46"/><ellipse cx="2045.5" cy="183.46" fill="#ADD1B2" rx="11" ry="11" style="stroke:#181818;stroke-width:1.0;"/><path d="M2047.9731,189.6031 Q2047.3921,189.9019 2046.7529,190.0513 Q2046.1138,190.2007 2045.4082,190.2007 Q2042.9014,190.2007 2041.5815,188.5489 Q2040.2617,186.897 2040.2617,183.7759 Q2040.2617,180.6465 2041.5815,178.9947 Q2042.9014,177.3428 2045.4082,177.3428 Q2046.1138,177.3428 2046.7612,177.4922 Q2047.4087,177.6416 2047.9731,177.9405 L2047.9731,180.6631 Q2047.3423,180.0821 2046.7488,179.8123 Q2046.1553,179.5425 2045.5244,179.5425 Q2044.1797,179.5425 2043.4949,180.6092 Q2042.8101,181.6758 2042.8101,183.7759 Q2042.8101,185.8677 2043.4949,186.9344 Q2044.1797,188.001 2045.5244,188.001 Q2046.1553,188.001 2046.7488,187.7312 Q2047.3423,187.4615 2047.9731,186.8804 Z " fill="#000000"/><text fill="#000000" font-family="sans-serif" font-size="14" lengthAdjust="spacing" textLength="107" x="2059.5" y="188.751">SubComponent</text><line style="stroke:#181818;stroke-width:0.5;" x1="2031.5" x2="2168.5" y1="199.46" y2="199.46"/><line style="stroke:#181818;stroke-width:0.5;" x1="2031.5" x2="2168.5" y1="207.46" y2="207.46"/></g><!--class MainUIModel--><g id="elem_MainUIModel"><rect fill="#F1F1F1" height="48" id="MainUIModel" rx="2.5" ry="2.5" style="stroke:#181818;stroke-width:0.5;" width="121" x="2212.5" y="167.46"/><ellipse cx="2227.5" cy="183.46" fill="#ADD1B2" rx="11" ry="11" style="stroke:#181818;stroke-width:1.0;"/><path d="M2229.9731,189.6031 Q2229.3921,189.9019 2228.7529,190.0513 Q2228.1138,190.2007 2227.4082,190.2007 Q2224.9014,190.2007 2223.5815,188.5489 Q2222.2617,186.897 2222.2617,183.7759 Q2222.2617,180.6465 2223.5815,178.9947 Q2224.9014,177.3428 2227.4082,177.3428 Q2228.1138,177.3428 2228.7612,177.4922 Q2229.4087,177.6416 2229.9731,177.9405 L2229.9731,180.6631 Q2229.3423,180.0821 2228.7488,179.8123 Q2228.1553,179.5425 2227.5244,179.5425 Q2226.1797,179.5425 2225.4949,180.6092 Q2224.8101,181.6758 2224.8101,183.7759 Q2224.8101,185.8677 2225.4949,186.9344 Q2226.1797,188.001 2227.5244,188.001 Q2228.1553,188.001 2228.7488,187.7312 Q2229.3423,187.4615 2229.9731,186.8804 Z " fill="#000000"/><text fill="#000000" font-family="sans-serif" font-size="14" lengthAdjust="spacing" textLength="89" x="2241.5" y="188.751">MainUIModel</text><line style="stroke:#181818;stroke-width:0.5;" x1="2213.5" x2="2332.5" y1="199.46" y2="199.46"/><line style="stroke:#181818;stroke-width:0.5;" x1="2213.5" x2="2332.5" y1="207.46" y2="207.46"/></g><!--class SubUIModel--><g id="elem_SubUIModel"><rect fill="#F1F1F1" height="48" id="SubUIModel" rx="2.5" ry="2.5" style="stroke:#181818;stroke-width:0.5;" width="114" x="2216" y="291.95"/><ellipse cx="2231" cy="307.95" fill="#ADD1B2" rx="11" ry="11" style="stroke:#181818;stroke-width:1.0;"/><path d="M2233.4731,314.0931 Q2232.8921,314.3919 2232.2529,314.5413 Q2231.6138,314.6907 2230.9082,314.6907 Q2228.4014,314.6907 2227.0815,313.0389 Q2225.7617,311.387 2225.7617,308.2659 Q2225.7617,305.1365 2227.0815,303.4847 Q2228.4014,301.8328 2230.9082,301.8328 Q2231.6138,301.8328 2232.2612,301.9822 Q2232.9087,302.1316 2233.4731,302.4305 L2233.4731,305.1531 Q2232.8423,304.5721 2232.2488,304.3023 Q2231.6553,304.0325 2231.0244,304.0325 Q2229.6797,304.0325 2228.9949,305.0992 Q2228.3101,306.1658 2228.3101,308.2659 Q2228.3101,310.3577 2228.9949,311.4244 Q2229.6797,312.491 2231.0244,312.491 Q2231.6553,312.491 2232.2488,312.2212 Q2232.8423,311.9515 2233.4731,311.3704 Z " fill="#000000"/><text fill="#000000" font-family="sans-serif" font-size="14" lengthAdjust="spacing" textLength="82" x="2245" y="313.241">SubUIModel</text><line style="stroke:#181818;stroke-width:0.5;" x1="2217" x2="2329" y1="323.95" y2="323.95"/><line style="stroke:#181818;stroke-width:0.5;" x1="2217" x2="2329" y1="331.95" y2="331.95"/></g><!--class FabricUIModel--><g id="elem_FabricUIModel"><rect fill="#F1F1F1" height="48" id="FabricUIModel" rx="2.5" ry="2.5" style="stroke:#181818;stroke-width:0.5;" width="130" x="2208" y="26.49"/><ellipse cx="2223" cy="42.49" fill="#ADD1B2" rx="11" ry="11" style="stroke:#181818;stroke-width:1.0;"/><path d="M2225.4731,48.6331 Q2224.8921,48.9319 2224.2529,49.0813 Q2223.6138,49.2307 2222.9082,49.2307 Q2220.4014,49.2307 2219.0815,47.5789 Q2217.7617,45.927 2217.7617,42.8059 Q2217.7617,39.6765 2219.0815,38.0247 Q2220.4014,36.3728 2222.9082,36.3728 Q2223.6138,36.3728 2224.2612,36.5222 Q2224.9087,36.6716 2225.4731,36.9705 L2225.4731,39.6931 Q2224.8423,39.1121 2224.2488,38.8423 Q2223.6553,38.5725 2223.0244,38.5725 Q2221.6797,38.5725 2220.9949,39.6392 Q2220.3101,40.7058 2220.3101,42.8059 Q2220.3101,44.8977 2220.9949,45.9644 Q2221.6797,47.031 2223.0244,47.031 Q2223.6553,47.031 2224.2488,46.7612 Q2224.8423,46.4915 2225.4731,45.9104 Z " fill="#000000"/><text fill="#000000" font-family="sans-serif" font-size="14" lengthAdjust="spacing" textLength="98" x="2237" y="47.781">FabricUIModel</text><line style="stroke:#181818;stroke-width:0.5;" x1="2209" x2="2337" y1="58.49" y2="58.49"/><line style="stroke:#181818;stroke-width:0.5;" x1="2209" x2="2337" y1="66.49" y2="66.49"/></g><!--class Event--><g id="elem_Event"><rect fill="#F1F1F1" height="48" id="Event" rx="2.5" ry="2.5" style="stroke:#181818;stroke-width:0.5;" width="69" x="2382.5" y="26.49"/><ellipse cx="2397.5" cy="42.49" fill="#ADD1B2" rx="11" ry="11" style="stroke:#181818;stroke-width:1.0;"/><path d="M2399.9731,48.6331 Q2399.3921,48.9319 2398.7529,49.0813 Q2398.1138,49.2307 2397.4082,49.2307 Q2394.9014,49.2307 2393.5815,47.5789 Q2392.2617,45.927 2392.2617,42.8059 Q2392.2617,39.6765 2393.5815,38.0247 Q2394.9014,36.3728 2397.4082,36.3728 Q2398.1138,36.3728 2398.7612,36.5222 Q2399.4087,36.6716 2399.9731,36.9705 L2399.9731,39.6931 Q2399.3423,39.1121 2398.7488,38.8423 Q2398.1553,38.5725 2397.5244,38.5725 Q2396.1797,38.5725 2395.4949,39.6392 Q2394.8101,40.7058 2394.8101,42.8059 Q2394.8101,44.8977 2395.4949,45.9644 Q2396.1797,47.031 2397.5244,47.031 Q2398.1553,47.031 2398.7488,46.7612 Q2399.3423,46.4915 2399.9731,45.9104 Z " fill="#000000"/><text fill="#000000" font-family="sans-serif" font-size="14" lengthAdjust="spacing" textLength="37" x="2411.5" y="47.781">Event</text><line style="stroke:#181818;stroke-width:0.5;" x1="2383.5" x2="2450.5" y1="58.49" y2="58.49"/><line style="stroke:#181818;stroke-width:0.5;" x1="2383.5" x2="2450.5" y1="66.49" y2="66.49"/></g><!--class EventPart--><g id="elem_EventPart"><rect fill="#F1F1F1" height="48" id="EventPart" rx="2.5" ry="2.5" style="stroke:#181818;stroke-width:0.5;" width="96" x="2369" y="167.46"/><ellipse cx="2384" cy="183.46" fill="#ADD1B2" rx="11" ry="11" style="stroke:#181818;stroke-width:1.0;"/><path d="M2386.4731,189.6031 Q2385.8921,189.9019 2385.2529,190.0513 Q2384.6138,190.2007 2383.9082,190.2007 Q2381.4014,190.2007 2380.0815,188.5489 Q2378.7617,186.897 2378.7617,183.7759 Q2378.7617,180.6465 2380.0815,178.9947 Q2381.4014,177.3428 2383.9082,177.3428 Q2384.6138,177.3428 2385.2612,177.4922 Q2385.9087,177.6416 2386.4731,177.9405 L2386.4731,180.6631 Q2385.8423,180.0821 2385.2488,179.8123 Q2384.6553,179.5425 2384.0244,179.5425 Q2382.6797,179.5425 2381.9949,180.6092 Q2381.3101,181.6758 2381.3101,183.7759 Q2381.3101,185.8677 2381.9949,186.9344 Q2382.6797,188.001 2384.0244,188.001 Q2384.6553,188.001 2385.2488,187.7312 Q2385.8423,187.4615 2386.4731,186.8804 Z " fill="#000000"/><text fill="#000000" font-family="sans-serif" font-size="14" lengthAdjust="spacing" textLength="64" x="2398" y="188.751">EventPart</text><line style="stroke:#181818;stroke-width:0.5;" x1="2370" x2="2464" y1="199.46" y2="199.46"/><line style="stroke:#181818;stroke-width:0.5;" x1="2370" x2="2464" y1="207.46" y2="207.46"/></g><!--reverse link IPersistenceModel to PercistenceModel--><g id="link_IPersistenceModel_PercistenceModel"><path d="M1213,109.31 C1213,133.85 1213,146.48 1213,167.15 " fill="none" id="IPersistenceModel-backto-PercistenceModel" style="stroke:#181818;stroke-width:1.0;stroke-dasharray:7.0,7.0;"/><polygon fill="none" points="1213,91.31,1207,109.31,1219,109.31,1213,91.31" style="stroke:#181818;stroke-width:1.0;"/></g><!--reverse link IUIModel to UIModel--><g id="link_IUIModel_UIModel"><path d="M1783,109.31 C1783,127.92 1783,132.02 1783,150.63 " fill="none" id="IUIModel-backto-UIModel" style="stroke:#181818;stroke-width:1.0;stroke-dasharray:7.0,7.0;"/><polygon fill="none" points="1783,91.31,1777,109.31,1789,109.31,1783,91.31" style="stroke:#181818;stroke-width:1.0;"/></g><!--reverse link MainComponent to SubComponent--><g id="link_MainComponent_SubComponent"><path codeLine="51" d="M2100,86.75 C2100,112.4 2100,141.44 2100,167.12 " fill="none" id="MainComponent-backto-SubComponent" style="stroke:#181818;stroke-width:1.0;"/><polygon fill="#181818" points="2100,74.75,2096,80.75,2100,86.75,2104,80.75,2100,74.75" style="stroke:#181818;stroke-width:1.0;"/><text fill="#000000" font-family="sans-serif" font-size="13" lengthAdjust="spacing" textLength="8" x="2091.025" y="95.0977">1</text><text fill="#000000" font-family="sans-serif" font-size="13" lengthAdjust="spacing" textLength="34" x="2061.6438" y="156.5691">many</text></g><!--reverse link MainUIModel to SubUIModel--><g id="link_MainUIModel_SubUIModel"><path codeLine="52" d="M2273,227.79 C2273,249.58 2273,269.94 2273,291.71 " fill="none" id="MainUIModel-backto-SubUIModel" style="stroke:#181818;stroke-width:1.0;"/><polygon fill="#181818" points="2273,215.79,2269,221.79,2273,227.79,2277,221.79,2273,215.79" style="stroke:#181818;stroke-width:1.0;"/><text fill="#000000" font-family="sans-serif" font-size="13" lengthAdjust="spacing" textLength="8" x="2264.025" y="236.1548">1</text><text fill="#000000" font-family="sans-serif" font-size="13" lengthAdjust="spacing" textLength="34" x="2234.6438" y="281.1848">many</text></g><!--reverse link FabricUIModel to MainUIModel--><g id="link_FabricUIModel_MainUIModel"><path codeLine="53" d="M2273,86.75 C2273,112.4 2273,141.44 2273,167.12 " fill="none" id="FabricUIModel-backto-MainUIModel" style="stroke:#181818;stroke-width:1.0;"/><polygon fill="#181818" points="2273,74.75,2269,80.75,2273,86.75,2277,80.75,2273,74.75" style="stroke:#181818;stroke-width:1.0;"/></g><!--reverse link Event to EventPart--><g id="link_Event_EventPart"><path codeLine="54" d="M2417,86.75 C2417,112.4 2417,141.44 2417,167.12 " fill="none" id="Event-backto-EventPart" style="stroke:#181818;stroke-width:1.0;"/><polygon fill="#181818" points="2417,74.75,2413,80.75,2417,86.75,2421,80.75,2417,74.75" style="stroke:#181818;stroke-width:1.0;"/><text fill="#000000" font-family="sans-serif" font-size="13" lengthAdjust="spacing" textLength="8" x="2408.025" y="95.0977">1</text><text fill="#000000" font-family="sans-serif" font-size="13" lengthAdjust="spacing" textLength="34" x="2378.6438" y="156.5691">many</text></g><!--SRC=[bLJBRkCm3BphAmXVjgySscCG16YxMo3OU16WxGSm2Xi8jIL3Lje6Y_ttfHpRUjGzr0T388VaS4YfbLWHt8ZsLUa6BTRGe7p5FJsw8piiIHVvTlI2Xyez6Et-O4rGt5g5LI6SQS0Ps1hd3AEK3rD62_5ZmwdWMWXPOTj2YKhVcxenchG3LJSLrNngOPLuUlJZOJiDZXrHvkTLQNPKXUZUaCSEvXxuwosawSuRj6czqPgZIcmTsP_eKDntdhjrJE41jrR9eTnV0VnTxiazgyvoveuDpQ6BF9_7rCG_8JIzDonUB-7D8E66h5HSLKlwt1mxszYPyCWZ0vyyB27ckIZDRRwWf6nGYqw9PUoFPxC8Sav8beVrlNyZAD4tTeI1HSQyor1e6QG8bNeHdlZFmvaQ-JZErHhr_i1ZwkBaqBw_8dDedLLwVmLLZnaidFG9w8Fvx7XoQGxMF2AU-NnP8LB0gQ5op3T1zmhMeLoSS1bjPjA8PpWb3DjBlnMuvKvGEZXjsR3dYydYN_QwJ3QuJt9YDAl71B-96h9plt-fwGIieeGZTFt9w5cdRr1nNS35R0P5ZVfO94-EYDwK2TomTkabzvZuBUgqoAF3Ueh_]--></g></svg>