<?xml version="1.0" encoding="us-ascii" standalone="no"?><svg xmlns="http://www.w3.org/2000/svg" xmlns:xlink="http://www.w3.org/1999/xlink" contentStyleType="text/css" height="1112px" preserveAspectRatio="none" style="width:1059px;height:1112px;background:#FFFFFF;" version="1.1" viewBox="0 0 1059 1112" width="1059px" zoomAndPan="magnify"><defs/><g><text fill="#000000" font-family="sans-serif" font-size="14" font-weight="bold" lengthAdjust="spacing" textLength="339" x="350.5" y="23.5352">Overview of component architecture in project.</text><text fill="#000000" font-family="sans-serif" font-size="14" font-weight="bold" lengthAdjust="spacing" textLength="429" x="305.5" y="40.0234">Some of componnets persented as interfaces (starts with I)</text><text fill="#000000" font-family="sans-serif" font-size="14" font-weight="bold" lengthAdjust="spacing" textLength="370" x="337.5" y="56.5117">because they should implemented these interfaces.</text><text fill="#000000" font-family="sans-serif" font-size="14" font-weight="bold" lengthAdjust="spacing" textLength="5" x="520" y="73">&#160;</text><!--entity C--><g id="elem_C"><rect fill="#F1F1F1" height="46.4883" rx="2.5" ry="2.5" style="stroke:#181818;stroke-width:0.5;" width="200" x="65" y="491.1331"/><rect fill="#F1F1F1" height="10" style="stroke:#181818;stroke-width:0.5;" width="15" x="245" y="496.1331"/><rect fill="#F1F1F1" height="2" style="stroke:#181818;stroke-width:0.5;" width="4" x="243" y="498.1331"/><rect fill="#F1F1F1" height="2" style="stroke:#181818;stroke-width:0.5;" width="4" x="243" y="502.1331"/><text fill="#000000" font-family="sans-serif" font-size="14" lengthAdjust="spacing" textLength="160" x="80" y="524.6683">IComponent&lt;T, M, MI&gt;</text></g><g id="elem_GMN3"><path d="M6,384.7531 L6,455.9953 A0,0 0 0 0 6,455.9953 L161,455.9953 L165,490.6531 L169,455.9953 L324,455.9953 A0,0 0 0 0 324,455.9953 L324,394.7531 L314,384.7531 L6,384.7531 A0,0 0 0 0 6,384.7531 " fill="#FEFFDD" style="stroke:#181818;stroke-width:0.5;"/><path d="M314,384.7531 L314,394.7531 L324,394.7531 L314,384.7531 " fill="#FEFFDD" style="stroke:#181818;stroke-width:0.5;"/><text fill="#000000" font-family="sans-serif" font-size="13" lengthAdjust="spacing" textLength="89" x="12" y="402.3215">Generic types:</text><text fill="#000000" font-family="sans-serif" font-size="13" lengthAdjust="spacing" textLength="167" x="12" y="417.632">T - type of processed data</text><text fill="#000000" font-family="sans-serif" font-size="13" lengthAdjust="spacing" textLength="167" x="12" y="432.9426">M - type of used metadata</text><text fill="#000000" font-family="sans-serif" font-size="13" lengthAdjust="spacing" textLength="297" x="12" y="448.2531">MI - type of eventueal metadata item updating.</text></g><g id="elem_GMN6"><path d="M10,573.0631 L10,613.6842 A0,0 0 0 0 10,613.6842 L320,613.6842 A0,0 0 0 0 320,613.6842 L320,583.0631 L310,573.0631 L169,573.0631 L165,538.0631 L161,573.0631 L10,573.0631 A0,0 0 0 0 10,573.0631 " fill="#FEFFDD" style="stroke:#181818;stroke-width:0.5;"/><path d="M310,573.0631 L310,583.0631 L320,583.0631 L310,573.0631 " fill="#FEFFDD" style="stroke:#181818;stroke-width:0.5;"/><text fill="#000000" font-family="sans-serif" font-size="13" lengthAdjust="spacing" textLength="289" x="16" y="590.6315">Using of some interfaces can be optional, e.g:</text><text fill="#000000" font-family="sans-serif" font-size="13" lengthAdjust="spacing" textLength="242" x="16" y="605.942">ILogger, IDataKeeper, IUserNotificator.</text></g><!--entity MP--><g id="elem_MP"><rect fill="#F1F1F1" height="46.4883" rx="2.5" ry="2.5" style="stroke:#181818;stroke-width:0.5;" width="198" x="449" y="363.1331"/><rect fill="#F1F1F1" height="10" style="stroke:#181818;stroke-width:0.5;" width="15" x="627" y="368.1331"/><rect fill="#F1F1F1" height="2" style="stroke:#181818;stroke-width:0.5;" width="4" x="625" y="370.1331"/><rect fill="#F1F1F1" height="2" style="stroke:#181818;stroke-width:0.5;" width="4" x="625" y="374.1331"/><text fill="#000000" font-family="sans-serif" font-size="14" lengthAdjust="spacing" textLength="158" x="464" y="396.6683">IUIModelProcessor&lt;T&gt;</text></g><!--entity IMP--><g id="elem_IMP"><ellipse cx="548" cy="453.3731" fill="#F1F1F1" rx="8" ry="8" style="stroke:#181818;stroke-width:0.5;"/><text fill="#000000" font-family="sans-serif" font-size="14" lengthAdjust="spacing" textLength="148" x="474" y="483.9083">IUIModelProvider&lt;T&gt;</text></g><!--entity IMUR--><g id="elem_IMUR"><ellipse cx="548" cy="674.3731" fill="#F1F1F1" rx="8" ry="8" style="stroke:#181818;stroke-width:0.5;"/><text fill="#000000" font-family="sans-serif" font-size="14" lengthAdjust="spacing" textLength="193" x="451.5" y="704.9083">IUIModeUpdateReceiver&lt;T&gt;</text></g><!--entity KMD--><g id="elem_KMD"><rect fill="#F1F1F1" height="46.4883" rx="2.5" ry="2.5" style="stroke:#181818;stroke-width:0.5;" width="214" x="441" y="176.1331"/><rect fill="#F1F1F1" height="10" style="stroke:#181818;stroke-width:0.5;" width="15" x="635" y="181.1331"/><rect fill="#F1F1F1" height="2" style="stroke:#181818;stroke-width:0.5;" width="4" x="633" y="183.1331"/><rect fill="#F1F1F1" height="2" style="stroke:#181818;stroke-width:0.5;" width="4" x="633" y="187.1331"/><text fill="#000000" font-family="sans-serif" font-size="14" lengthAdjust="spacing" textLength="174" x="456" y="209.6683">IKeeperMetaData&lt;M, MI&gt;</text></g><!--entity IMDP--><g id="elem_IMDP"><ellipse cx="548" cy="266.3731" fill="#F1F1F1" rx="8" ry="8" style="stroke:#181818;stroke-width:0.5;"/><text fill="#000000" font-family="sans-serif" font-size="14" lengthAdjust="spacing" textLength="163" x="466.5" y="296.9083">IMetaDatalProvider&lt;M&gt;</text></g><!--entity IMDUR--><g id="elem_IMDUR"><ellipse cx="548" cy="319.3731" fill="#F1F1F1" rx="8" ry="8" style="stroke:#181818;stroke-width:0.5;"/><text fill="#000000" font-family="sans-serif" font-size="14" lengthAdjust="spacing" textLength="216" x="440" y="349.9083">IMetaDatalUpdateReceiver&lt;MI&gt;</text></g><!--entity LZ--><g id="elem_LZ"><rect fill="#F1F1F1" height="46.4883" rx="2.5" ry="2.5" style="stroke:#181818;stroke-width:0.5;" width="101" x="497.5" y="849.1331"/><rect fill="#F1F1F1" height="10" style="stroke:#181818;stroke-width:0.5;" width="15" x="578.5" y="854.1331"/><rect fill="#F1F1F1" height="2" style="stroke:#181818;stroke-width:0.5;" width="4" x="576.5" y="856.1331"/><rect fill="#F1F1F1" height="2" style="stroke:#181818;stroke-width:0.5;" width="4" x="576.5" y="860.1331"/><text fill="#000000" font-family="sans-serif" font-size="14" lengthAdjust="spacing" textLength="61" x="512.5" y="882.6683">Localizer</text></g><g id="elem_GMN24"><path d="M408,788.7131 L408,814.0237 A0,0 0 0 0 408,814.0237 L544,814.0237 L548,848.7331 L552,814.0237 L688,814.0237 A0,0 0 0 0 688,814.0237 L688,798.7131 L678,788.7131 L408,788.7131 A0,0 0 0 0 408,788.7131 " fill="#FEFFDD" style="stroke:#181818;stroke-width:0.5;"/><path d="M678,788.7131 L678,798.7131 L688,798.7131 L678,788.7131 " fill="#FEFFDD" style="stroke:#181818;stroke-width:0.5;"/><text fill="#000000" font-family="sans-serif" font-size="13" lengthAdjust="spacing" textLength="259" x="414" y="806.2815">Separate instance for each interface user.</text></g><!--entity ILZ--><g id="elem_ILZ"><ellipse cx="548" cy="939.3731" fill="#F1F1F1" rx="8" ry="8" style="stroke:#181818;stroke-width:0.5;"/><text fill="#000000" font-family="sans-serif" font-size="14" lengthAdjust="spacing" textLength="65" x="515.5" y="969.9083">ILocalizer</text></g><!--entity ILNR--><g id="elem_ILNR"><ellipse cx="912" cy="728.3731" fill="#F1F1F1" rx="8" ry="8" style="stroke:#181818;stroke-width:0.5;"/><text fill="#000000" font-family="sans-serif" font-size="14" lengthAdjust="spacing" textLength="222" x="801" y="758.9083">ILocalizationNotificationReceiver</text></g><!--entity LS--><g id="elem_LS"><rect fill="#F1F1F1" height="46.4883" rx="2.5" ry="2.5" style="stroke:#181818;stroke-width:0.5;" width="170" x="827" y="782.1331"/><rect fill="#F1F1F1" height="10" style="stroke:#181818;stroke-width:0.5;" width="15" x="977" y="787.1331"/><rect fill="#F1F1F1" height="2" style="stroke:#181818;stroke-width:0.5;" width="4" x="975" y="789.1331"/><rect fill="#F1F1F1" height="2" style="stroke:#181818;stroke-width:0.5;" width="4" x="975" y="793.1331"/><text fill="#000000" font-family="sans-serif" font-size="14" lengthAdjust="spacing" textLength="130" x="842" y="815.6683">LocalizationService</text></g><!--entity ILN--><g id="elem_ILN"><ellipse cx="912" cy="872.3731" fill="#F1F1F1" rx="8" ry="8" style="stroke:#181818;stroke-width:0.5;"/><text fill="#000000" font-family="sans-serif" font-size="14" lengthAdjust="spacing" textLength="196" x="814" y="902.9083">ILanguageChangeNotificator</text></g><!--entity LO--><g id="elem_LO"><rect fill="#F1F1F1" height="46.4883" rx="2.5" ry="2.5" style="stroke:#181818;stroke-width:0.5;" width="88" x="868" y="156.1331"/><rect fill="#F1F1F1" height="10" style="stroke:#181818;stroke-width:0.5;" width="15" x="936" y="161.1331"/><rect fill="#F1F1F1" height="2" style="stroke:#181818;stroke-width:0.5;" width="4" x="934" y="163.1331"/><rect fill="#F1F1F1" height="2" style="stroke:#181818;stroke-width:0.5;" width="4" x="934" y="167.1331"/><text fill="#000000" font-family="sans-serif" font-size="14" lengthAdjust="spacing" textLength="48" x="883" y="189.6683">Logger</text></g><g id="elem_GMN38"><path d="M772,95.7131 L772,121.0237 A0,0 0 0 0 772,121.0237 L908,121.0237 L912,155.7331 L916,121.0237 L1052,121.0237 A0,0 0 0 0 1052,121.0237 L1052,105.7131 L1042,95.7131 L772,95.7131 A0,0 0 0 0 772,95.7131 " fill="#FEFFDD" style="stroke:#181818;stroke-width:0.5;"/><path d="M1042,95.7131 L1042,105.7131 L1052,105.7131 L1042,95.7131 " fill="#FEFFDD" style="stroke:#181818;stroke-width:0.5;"/><text fill="#000000" font-family="sans-serif" font-size="13" lengthAdjust="spacing" textLength="259" x="778" y="113.2815">Separate instance for each interface user.</text></g><!--entity ILO--><g id="elem_ILO"><ellipse cx="912" cy="246.3731" fill="#F1F1F1" rx="8" ry="8" style="stroke:#181818;stroke-width:0.5;"/><text fill="#000000" font-family="sans-serif" font-size="14" lengthAdjust="spacing" textLength="52" x="886" y="276.9083">ILogger</text></g><!--entity ILC--><g id="elem_ILC"><ellipse cx="912" cy="567.3731" fill="#F1F1F1" rx="8" ry="8" style="stroke:#181818;stroke-width:0.5;"/><text fill="#000000" font-family="sans-serif" font-size="14" lengthAdjust="spacing" textLength="98" x="863" y="597.9083">ILoggerConfig</text></g><!--entity LC--><g id="elem_LC"><rect fill="#F1F1F1" height="46.4883" rx="2.5" ry="2.5" style="stroke:#181818;stroke-width:0.5;" width="184" x="456" y="584.1331"/><rect fill="#F1F1F1" height="10" style="stroke:#181818;stroke-width:0.5;" width="15" x="620" y="589.1331"/><rect fill="#F1F1F1" height="2" style="stroke:#181818;stroke-width:0.5;" width="4" x="618" y="591.1331"/><rect fill="#F1F1F1" height="2" style="stroke:#181818;stroke-width:0.5;" width="4" x="618" y="595.1331"/><text fill="#000000" font-family="sans-serif" font-size="14" lengthAdjust="spacing" textLength="144" x="471" y="617.6683">LoggerConfiguration</text></g><!--entity UN--><g id="elem_UN"><rect fill="#F1F1F1" height="46.4883" rx="2.5" ry="2.5" style="stroke:#181818;stroke-width:0.5;" width="147" x="474.5" y="983.1331"/><rect fill="#F1F1F1" height="10" style="stroke:#181818;stroke-width:0.5;" width="15" x="601.5" y="988.1331"/><rect fill="#F1F1F1" height="2" style="stroke:#181818;stroke-width:0.5;" width="4" x="599.5" y="990.1331"/><rect fill="#F1F1F1" height="2" style="stroke:#181818;stroke-width:0.5;" width="4" x="599.5" y="994.1331"/><text fill="#000000" font-family="sans-serif" font-size="14" lengthAdjust="spacing" textLength="107" x="489.5" y="1016.6683">IUserNotificator</text></g><!--entity IUN--><g id="elem_IUN"><ellipse cx="548" cy="1073.3731" fill="#F1F1F1" rx="8" ry="8" style="stroke:#181818;stroke-width:0.5;"/><text fill="#000000" font-family="sans-serif" font-size="14" lengthAdjust="spacing" textLength="107" x="494.5" y="1103.9083">IUserNotificator</text></g><!--entity BL--><g id="elem_BL"><rect fill="#F1F1F1" height="46.4883" rx="2.5" ry="2.5" style="stroke:#181818;stroke-width:0.5;" width="166" x="829" y="290.1331"/><rect fill="#F1F1F1" height="10" style="stroke:#181818;stroke-width:0.5;" width="15" x="975" y="295.1331"/><rect fill="#F1F1F1" height="2" style="stroke:#181818;stroke-width:0.5;" width="4" x="973" y="297.1331"/><rect fill="#F1F1F1" height="2" style="stroke:#181818;stroke-width:0.5;" width="4" x="973" y="301.1331"/><text fill="#000000" font-family="sans-serif" font-size="14" lengthAdjust="spacing" textLength="126" x="844" y="323.6683">BusinessLogic&lt;T&gt;</text></g><!--entity IBL--><g id="elem_IBL"><ellipse cx="912" cy="380.3731" fill="#F1F1F1" rx="8" ry="8" style="stroke:#181818;stroke-width:0.5;"/><text fill="#000000" font-family="sans-serif" font-size="14" lengthAdjust="spacing" textLength="130" x="847" y="410.9083">IBusinessLogic&lt;T&gt;</text></g><!--entity DK--><g id="elem_DK"><rect fill="#F1F1F1" height="46.4883" rx="2.5" ry="2.5" style="stroke:#181818;stroke-width:0.5;" width="150" x="837" y="424.1331"/><rect fill="#F1F1F1" height="10" style="stroke:#181818;stroke-width:0.5;" width="15" x="967" y="429.1331"/><rect fill="#F1F1F1" height="2" style="stroke:#181818;stroke-width:0.5;" width="4" x="965" y="431.1331"/><rect fill="#F1F1F1" height="2" style="stroke:#181818;stroke-width:0.5;" width="4" x="965" y="435.1331"/><text fill="#000000" font-family="sans-serif" font-size="14" lengthAdjust="spacing" textLength="110" x="852" y="457.6683">DataKeeper&lt;T&gt;</text></g><!--entity IDK--><g id="elem_IDK"><ellipse cx="912" cy="514.3731" fill="#F1F1F1" rx="8" ry="8" style="stroke:#181818;stroke-width:0.5;"/><text fill="#000000" font-family="sans-serif" font-size="14" lengthAdjust="spacing" textLength="114" x="855" y="544.9083">IDataKeeper&lt;T&gt;</text></g><!--link MP to IMP--><g id="link_MP_IMP"><path d="M548,410.0331 C548,421.7731 548,435.2831 548,444.0531 " fill="none" id="MP-IMP" style="stroke:#181818;stroke-width:1.0;"/></g><!--link C to IMP--><g id="link_C_IMP"><path d="M265.11,498.5031 C363,482.8331 497.1754,461.3516 532.6554,455.6716 " fill="none" id="C-to-IMP" style="stroke:#181818;stroke-width:1.0;"/><polygon fill="#181818" points="538.58,454.7231,529.0609,452.1961,533.6429,455.5135,530.3255,460.0955,538.58,454.7231" style="stroke:#181818;stroke-width:1.0;"/><text fill="#000000" font-family="sans-serif" font-size="13" lengthAdjust="spacing" textLength="22" x="355" y="478.9415">use</text></g><!--link MP to IMUR--><g id="link_MP_IMUR"><path d="M448.54,399.7331 C433.25,405.7431 418.93,414.2831 408,426.3731 C388.32,448.1431 397.85,462.0631 396.33,491.3731 C392.72,561.2531 361.3,596.2631 408,648.3731 C442.32,686.6631 513.29,679.8931 538.7,676.0131 " fill="none" id="MP-IMUR" style="stroke:#181818;stroke-width:1.0;"/></g><!--link C to IMUR--><g id="link_C_IMUR"><path d="M265.25,530.7131 C285.58,536.5931 306.19,544.5731 324,555.3731 C371.63,584.2531 359.41,621.1531 408,648.3731 C452.34,673.2031 509.8504,674.9545 532.5504,674.6845 " fill="none" id="C-to-IMUR" style="stroke:#181818;stroke-width:1.0;"/><polygon fill="#181818" points="538.55,674.6131,529.5031,670.7204,533.5504,674.6726,529.5982,678.7199,538.55,674.6131" style="stroke:#181818;stroke-width:1.0;"/><text fill="#000000" font-family="sans-serif" font-size="13" lengthAdjust="spacing" textLength="22" x="355" y="581.9415">use</text></g><!--link KMD to IMDP--><g id="link_KMD_IMDP"><path d="M548,223.0331 C548,234.7731 548,248.2831 548,257.0531 " fill="none" id="KMD-IMDP" style="stroke:#181818;stroke-width:1.0;"/></g><!--link KMD to IMDUR--><g id="link_KMD_IMDUR"><path d="M440.69,215.9231 C428.36,221.6631 417.01,229.2831 408,239.3731 C386.99,262.9031 376.75,284.6531 396.33,309.3731 C430.91,353.0231 511.52,331.5131 538.79,322.6031 " fill="none" id="KMD-IMDUR" style="stroke:#181818;stroke-width:1.0;"/></g><!--link C to IMDP--><g id="link_C_IMDP"><path d="M265.49,506.4531 C287.37,500.2331 308.58,489.9931 324,473.3731 C374.99,418.4031 303.48,362.7731 354,307.3731 C404.32,252.1931 502.9403,260.4881 532.8803,264.3881 " fill="none" id="C-to-IMDP" style="stroke:#181818;stroke-width:1.0;"/><polygon fill="#181818" points="538.83,265.1631,530.4221,260.0341,533.8719,264.5173,529.3887,267.9671,538.83,265.1631" style="stroke:#181818;stroke-width:1.0;"/><text fill="#000000" font-family="sans-serif" font-size="13" lengthAdjust="spacing" textLength="22" x="355" y="287.9415">use</text></g><!--link C to IMDUR--><g id="link_C_IMDUR"><path d="M265.36,500.4431 C286.01,494.4031 306.73,485.7531 324,473.3731 C379.3,433.7231 351.36,383.0831 408,345.3731 C450.5,317.0731 509.708,317.2826 532.668,318.4726 " fill="none" id="C-to-IMDUR" style="stroke:#181818;stroke-width:1.0;"/><polygon fill="#181818" points="538.66,318.7831,529.8791,314.3226,533.6667,318.5243,529.465,322.3119,538.66,318.7831" style="stroke:#181818;stroke-width:1.0;"/><text fill="#000000" font-family="sans-serif" font-size="13" lengthAdjust="spacing" textLength="22" x="355" y="376.9415">use</text></g><!--link LZ to ILZ--><g id="link_LZ_ILZ"><path d="M548,896.0331 C548,907.7731 548,921.2831 548,930.0531 " fill="none" id="LZ-ILZ" style="stroke:#181818;stroke-width:1.0;"/></g><!--link C to ILZ--><g id="link_C_ILZ"><path d="M265.49,521.8131 C287.5,528.0231 308.77,538.3831 324,555.3731 C354.88,589.8231 342.87,716.4731 354,761.3731 C371.25,830.9631 353.5,866.7931 408,913.3731 C447.01,946.7131 509.0035,943.5766 532.6435,941.0666 " fill="none" id="C-to-ILZ" style="stroke:#181818;stroke-width:1.0;"/><polygon fill="#181818" points="538.61,940.4331,529.238,937.4057,533.6379,940.961,530.0826,945.361,538.61,940.4331" style="stroke:#181818;stroke-width:1.0;"/><text fill="#000000" font-family="sans-serif" font-size="13" lengthAdjust="spacing" textLength="22" x="355" y="757.9415">use</text></g><!--link C to ILNR--><g id="link_C_ILNR"><path d="M265.29,525.2031 C286.54,531.3731 307.52,540.8531 324,555.3731 C350.94,579.1031 336.2,599.1931 354,630.3731 C373.48,664.4931 373.23,682.0631 408,700.3731 C586.77,794.5031 852.47,741.5531 902.66,730.3131 " fill="none" id="C-ILNR" style="stroke:#181818;stroke-width:1.0;"/></g><!--link LZ to ILNR--><g id="link_LZ_ILNR"><path d="M598.7,862.6431 C626.04,856.0931 659.99,845.9531 688,831.3731 C730.36,809.3231 729.28,785.7131 772,764.3731 C818.16,741.3131 874.5942,732.7302 896.7942,730.0202 " fill="none" id="LZ-to-ILNR" style="stroke:#181818;stroke-width:1.0;"/><polygon fill="#181818" points="902.75,729.2931,893.3316,726.4132,897.7868,729.899,894.301,734.3542,902.75,729.2931" style="stroke:#181818;stroke-width:1.0;"/><text fill="#000000" font-family="sans-serif" font-size="13" lengthAdjust="spacing" textLength="22" x="719" y="782.9415">use</text></g><!--link LS to ILN--><g id="link_LS_ILN"><path d="M912,829.0331 C912,840.7731 912,854.2831 912,863.0531 " fill="none" id="LS-ILN" style="stroke:#181818;stroke-width:1.0;"/></g><!--link LZ to ILN--><g id="link_LZ_ILN"><path d="M598.95,872.3731 C686.62,872.3731 856.7,872.3731 896.76,872.3731 " fill="none" id="LZ-to-ILN" style="stroke:#181818;stroke-width:1.0;"/><polygon fill="#181818" points="902.76,872.3731,893.76,868.3731,897.76,872.3731,893.76,876.3731,902.76,872.3731" style="stroke:#181818;stroke-width:1.0;"/><text fill="#000000" font-family="sans-serif" font-size="13" lengthAdjust="spacing" textLength="22" x="719" y="868.9415">use</text></g><!--link LO to ILO--><g id="link_LO_ILO"><path d="M912,203.0331 C912,214.7731 912,228.2831 912,237.0531 " fill="none" id="LO-ILO" style="stroke:#181818;stroke-width:1.0;"/></g><!--link C to ILO--><g id="link_C_ILO"><path d="M265.5,506.9431 C287.51,500.7231 308.78,490.3631 324,473.3731 C386.02,404.1231 326.19,355.0731 354,266.3731 C370.05,215.1631 362.35,186.5831 408,158.3731 C513.86,92.9531 569.59,120.0831 688,158.3731 C716.17,167.4831 718.25,179.7031 742,197.3731 C755.48,207.4031 756.66,213.5331 772,220.3731 C818.41,241.0731 874.6545,245.06 896.7745,245.92 " fill="none" id="C-to-ILO" style="stroke:#181818;stroke-width:1.0;"/><polygon fill="#181818" points="902.77,246.1531,893.9322,241.8065,897.7738,245.9589,893.6214,249.8005,902.77,246.1531" style="stroke:#181818;stroke-width:1.0;"/><text fill="#000000" font-family="sans-serif" font-size="13" lengthAdjust="spacing" textLength="22" x="537" y="115.9415">use</text></g><!--link MP to ILO--><g id="link_MP_ILO"><path d="M647.23,363.1831 C661.31,358.2231 675.31,352.3231 688,345.3731 C731.38,321.6131 727.47,293.8931 772,272.3731 C817.76,250.2631 874.4014,247.0422 896.7014,246.5622 " fill="none" id="MP-to-ILO" style="stroke:#181818;stroke-width:1.0;"/><polygon fill="#181818" points="902.7,246.4331,893.616,242.6277,897.7012,246.5407,893.7882,250.6259,902.7,246.4331" style="stroke:#181818;stroke-width:1.0;"/><text fill="#000000" font-family="sans-serif" font-size="13" lengthAdjust="spacing" textLength="22" x="719" y="291.9415">use</text></g><!--link KMD to ILO--><g id="link_KMD_ILO"><path d="M655.17,213.1531 C746.96,225.0731 863.9698,240.2714 896.7398,244.5214 " fill="none" id="KMD-to-ILO" style="stroke:#181818;stroke-width:1.0;"/><polygon fill="#181818" points="902.69,245.2931,894.2792,240.1688,897.7315,244.6501,893.2503,248.1024,902.69,245.2931" style="stroke:#181818;stroke-width:1.0;"/><text fill="#000000" font-family="sans-serif" font-size="13" lengthAdjust="spacing" textLength="22" x="719" y="218.9415">use</text></g><!--link LO to ILC--><g id="link_LO_ILC"><path d="M867.83,179.6831 C836.2,182.4431 795.24,191.6831 772,219.3731 C739.83,257.7131 761.54,281.3431 760.33,331.3731 C758.1,424.3831 710.79,470.3131 772,540.3731 C805.87,579.1531 877.12,572.7431 902.65,568.9731 " fill="none" id="LO-ILC" style="stroke:#181818;stroke-width:1.0;"/></g><!--link LC to ILC--><g id="link_LC_ILC"><path d="M640.35,597.2831 C733.34,587.0031 862.6163,572.7223 896.9063,568.9323 " fill="none" id="LC-to-ILC" style="stroke:#181818;stroke-width:1.0;"/><polygon fill="#181818" points="902.87,568.2731,893.485,565.2861,897.9003,568.8224,894.3639,573.2376,902.87,568.2731" style="stroke:#181818;stroke-width:1.0;"/><text fill="#000000" font-family="sans-serif" font-size="13" lengthAdjust="spacing" textLength="22" x="719" y="582.9415">use</text></g><!--link UN to IUN--><g id="link_UN_IUN"><path d="M548,1030.0331 C548,1041.7731 548,1055.2831 548,1064.0531 " fill="none" id="UN-IUN" style="stroke:#181818;stroke-width:1.0;"/></g><!--link C to IUN--><g id="link_C_IUN"><path d="M265.37,520.9631 C287.66,527.1731 309.09,537.7331 324,555.3731 C373.82,614.3131 337.13,826.0631 354,901.3731 C369.12,968.8831 355.12,1002.7631 408,1047.3731 C447.22,1080.4531 509.0819,1077.4707 532.6619,1075.0307 " fill="none" id="C-to-IUN" style="stroke:#181818;stroke-width:1.0;"/><polygon fill="#181818" points="538.63,1074.4131,529.2661,1071.3607,533.6566,1074.9278,530.0895,1079.3182,538.63,1074.4131" style="stroke:#181818;stroke-width:1.0;"/><text fill="#000000" font-family="sans-serif" font-size="13" lengthAdjust="spacing" textLength="22" x="355" y="897.9415">use</text></g><!--link BL to IBL--><g id="link_BL_IBL"><path d="M912,337.0331 C912,348.7731 912,362.2831 912,371.0531 " fill="none" id="BL-IBL" style="stroke:#181818;stroke-width:1.0;"/></g><!--link MP to IBL--><g id="link_MP_IBL"><path d="M647.44,384.7431 C739.98,383.2031 863.1608,381.1613 896.7608,380.6113 " fill="none" id="MP-to-IBL" style="stroke:#181818;stroke-width:1.0;"/><polygon fill="#181818" points="902.76,380.5131,893.6957,376.661,897.7607,380.595,893.8267,384.6599,902.76,380.5131" style="stroke:#181818;stroke-width:1.0;"/><text fill="#000000" font-family="sans-serif" font-size="13" lengthAdjust="spacing" textLength="22" x="719" y="379.9415">use</text></g><!--link DK to IDK--><g id="link_DK_IDK"><path d="M912,471.0331 C912,482.7731 912,496.2831 912,505.0531 " fill="none" id="DK-IDK" style="stroke:#181818;stroke-width:1.0;"/></g><!--link MP to IDK--><g id="link_MP_IDK"><path d="M647.49,409.9631 C661.4,414.6431 675.27,420.1031 688,426.3731 C729.62,446.8931 729.45,469.8631 772,488.3731 C818.6,508.6431 874.7259,512.867 896.7959,513.847 " fill="none" id="MP-to-IDK" style="stroke:#181818;stroke-width:1.0;"/><polygon fill="#181818" points="902.79,514.1131,893.9763,509.7178,897.7949,513.8913,893.6214,517.7099,902.79,514.1131" style="stroke:#181818;stroke-width:1.0;"/><text fill="#000000" font-family="sans-serif" font-size="13" lengthAdjust="spacing" textLength="22" x="719" y="444.9415">use</text></g><!--link C to IDK--><g id="link_C_IDK"><path d="M265.32,514.3731 C451.9,514.3731 835.61,514.3731 896.83,514.3731 " fill="none" id="C-to-IDK" style="stroke:#181818;stroke-width:1.0;"/><polygon fill="#181818" points="902.83,514.3731,893.83,510.3731,897.83,514.3731,893.83,518.3731,902.83,514.3731" style="stroke:#181818;stroke-width:1.0;"/><text fill="#000000" font-family="sans-serif" font-size="13" lengthAdjust="spacing" textLength="22" x="537" y="510.9415">use</text></g><!--SRC=[hLJ1RgCm4Btp5QEUTgKs7r1LFPH8AokGH4cvzEQI2NW561cJgllr-moOmC9nfKWPZz-yzsPiK_3LajLaL9PRkYZ3gLMw2WAhRC41qU76vgRuY_ILKbtMkkBAaZHfhYomhM5I5TL6_yPgGwWuwvBlw8fjGpMR1cLy8Ta0RjbSPSeD_MYiDDZ_KZOdyTDLVt8gsuR9vlnDJQxRuaAgh0ikUmBa6vvmR8A0AwGxky7TuOC8VVpo_aWnVkBrmUc7GQKj17JjN8RG_CKL6vMI_QwvUKRYdPwwXGEWDSWqaBv8Ax4PJpPRbo_PIhyd9fjyWtZBiXWHX9cLrDQ8LPLjEkVEJD1R-jJMwjAxIXfWtA9n0vrCBPKLnaIwTYSbYqVYJUPSYqXd6Pj74bjexPZhRf4qRFRQggjAfTLcgZeTLo9YVU7YsBUhpSjxFwxu68pQCzXDNNX4YLLOuZhb4wUiRbDiSWg2-8XHkRBmwUaL__JifZdc0UatafFVcRhjkuinLzVho-HuT_5sviHZxfPZRsDxN4V-Ozipem2kmDyPHF4OEhC4jrrwi3icajF2VwHJMQW_R1njz36xa5ZY3N4j3JpWsF54AjYxQaCiq_n-4Hpfx3JlEs8c840PVJYd20PRM0-kbbNItQlnnY3sa-Z9zbspVU1eExhzoYbDwSxkAm8Dr-zvfYchh9KPXpa2djpJGIo8phtOe8LeJSbT_8xyC1_cuRyCqxCBy4M7pizXdEHXyECkxYpHNOzPPiaQwkggifuxN7JKxxQc6s7NNkZr4NW3uN8W_pvwLvlif_8h0054idVi20RoP6NQ3syjFatuIC2aIlshVejcZsaL8m1wYvm20Zyl99OIzo-OhztkPlnBW01YktFa23mv4hFdEAw3lm00]--></g></svg>